<svg width="127" height="32" viewBox="0 0 127 32" fill="none" xmlns="http://www.w3.org/2000/svg">
<path d="M0 32L14.2222 0L23.1111 19.5556L17.7778 32H0Z" fill="#4F46E5"/>
<path d="M46.2217 32L31.9995 0L23.1106 19.5556L28.4439 32H46.2217Z" fill="#4F46E5"/>
<path d="M63.6294 6.969C66.1325 6.969 68.2374 8.10678 68.8916 10.553H72.7316C72.1343 6.31477 68.465 3.55566 63.7147 3.55566C57.457 3.55566 53.3325 8.04989 53.3325 14.3646C53.3325 20.7646 57.4001 25.0028 63.2312 25.0028C66.0472 25.0028 68.4081 23.8934 69.5459 22.3006L69.7734 24.6899H72.8454V12.9992H63.1743V16.2134H69.4605V16.2988C69.4605 19.6268 67.2703 21.6179 63.6579 21.6179C59.8179 21.6179 57.1441 19.0863 57.1441 14.4499C57.1441 9.95566 59.505 6.969 63.6294 6.969Z" fill="#192839"/>
<path d="M78.0003 7.82233C79.1381 7.82233 80.0767 6.88366 80.0767 5.71744C80.0767 4.55122 79.1381 3.641 78.0003 3.641C76.8056 3.641 75.867 4.55122 75.867 5.71744C75.867 6.88366 76.8056 7.82233 78.0003 7.82233ZM76.2652 24.6899H79.7354V10.6383H76.2652V24.6899Z" fill="#192839"/>
<path d="M82.5243 17.3512C82.5243 21.4188 85.1412 24.4054 89.1234 24.4054C91.143 24.4054 92.8781 23.5806 93.7599 22.2721V24.6046C93.7599 26.937 92.2239 28.4445 89.8345 28.4445C87.7012 28.4445 86.3074 27.3637 86.0799 25.5432H82.6096C83.0363 29.2979 85.7954 31.6019 89.8345 31.6019C94.3856 31.6019 97.2016 28.6721 97.2016 23.9788V10.6383H93.9874L93.7883 12.5726C92.9634 11.065 91.3136 10.1832 89.2087 10.1832C85.1981 10.1832 82.5243 13.2552 82.5243 17.3512ZM86.023 17.2659C86.023 14.9619 87.5021 13.2268 89.8061 13.2268C92.2239 13.2268 93.6745 14.8766 93.6745 17.2659C93.6745 19.7121 92.1954 21.3903 89.8061 21.3903C87.5305 21.3903 86.023 19.6268 86.023 17.2659Z" fill="#192839"/>
<path d="M111.403 24.6899V21.7886H104.292L111.403 13.5112V10.6383H100.053V13.5397H107.051L100.053 21.8454V24.6899H111.403Z" fill="#192839"/>
<path d="M118.419 25.0597C120.609 25.0597 122.515 24.0641 123.112 22.6134L123.368 24.6899H126.412V16.1566C126.412 12.2597 124.079 10.2117 120.296 10.2117C116.485 10.2117 113.981 12.2028 113.981 15.2463H116.94C116.94 13.7672 118.077 12.9139 120.125 12.9139C121.889 12.9139 123.027 13.6819 123.027 15.5877V15.9006L118.817 16.2134C115.489 16.4694 113.612 18.0908 113.612 20.6792C113.612 23.3246 115.432 25.0597 118.419 25.0597ZM119.557 22.4428C117.992 22.4428 117.139 21.817 117.139 20.537C117.139 19.3992 117.964 18.6881 120.125 18.489L123.055 18.2614V19.001C123.055 21.1628 121.69 22.4428 119.557 22.4428Z" fill="#192839"/>
</svg>
