<svg width="22" height="23" viewBox="0 0 22 23" fill="none" xmlns="http://www.w3.org/2000/svg">
<path d="M20.9398 11.0499L11.7498 20.2399C10.624 21.3658 9.09699 21.9983 7.5048 21.9983C5.91262 21.9983 4.38565 21.3658 3.2598 20.2399C2.13396 19.1141 1.50146 17.5871 1.50146 15.9949C1.50146 14.4027 2.13396 12.8758 3.2598 11.7499L12.4498 2.55992C13.2004 1.80936 14.2183 1.3877 15.2798 1.3877C16.3413 1.3877 17.3592 1.80936 18.1098 2.55992C18.8604 3.31048 19.282 4.32846 19.282 5.38992C19.282 6.45138 18.8604 7.46936 18.1098 8.21992L8.9098 17.4099C8.53452 17.7852 8.02553 17.996 7.4948 17.996C6.96407 17.996 6.45508 17.7852 6.0798 17.4099C5.70452 17.0346 5.49369 16.5256 5.49369 15.9949C5.49369 15.4642 5.70452 14.9552 6.0798 14.5799L14.5698 6.09992" stroke="#49494B" stroke-width="2" stroke-linecap="round" stroke-linejoin="round"/>
</svg>
